# xmcd CD database file
#
# Track frame offsets:
#	150
#	23700
#	48750
#	69300
#	93600
#	124200
#	152925
#	175050
#
# Disc length: 2587 seconds
#
# Revision: 1
# Processed by: cddbd v1.5.1PL0 Copyright (c) Steve Scherf et al.
# Submitted via: freeDBTagger 0.5
#
DISCID=610a1908
DTITLE=角松敏生 - WEEKEND FLY TO THE SUN
DYEAR=1982
DGENRE=rock
TTITLE0=OFFICE LADY
TTITLE1=RUSH HOUR
TTITLE2=BRUNCH
TTITLE3=SPACE SCRAPER
TTITLE4=FRIDAY TO SUNDAY
TTITLE5=CRESCENT AVENTURE
TTITLE6=I’LL NEVER LET YOU GO
TTITLE7=4 A.M.
EXTD=
EXTT0=
EXTT1=
EXTT2=
EXTT3=
EXTT4=
EXTT5=
EXTT6=
EXTT7=
PLAYORDER=
